<svg width="896" height="776" viewBox="0 0 896 776" fill="none" xmlns="http://www.w3.org/2000/svg">
<path fill-rule="evenodd" clip-rule="evenodd" d="M528.708 747.624L529.248 748.108H531.278L532.292 745.825L535.082 745.064V740.244L537.873 739.482L538.634 742.527L541.17 745.825L542.692 744.303L545.482 745.825L548.273 746.586L549.287 750.645L551.063 749.377L557.15 748.108L556.136 743.795L557.404 743.542L560.448 747.347L566.282 747.854L565.014 750.138L562.224 754.451L561.209 762.569L563.999 763.33L564.506 769.165L568.819 771.448L567.55 772.463L568.311 775L575.921 774.746L579.472 771.194L579.726 769.672L576.175 766.121L575.414 762.569L572.623 761.554L571.609 758.256L573.892 755.973L577.443 753.436L579.979 753.182L583.53 748.362L587.589 748.108L589.365 745.825L594.945 745.571L596.72 744.049H600.018L603.316 741.766V739.482L606.359 738.468L608.642 737.199H611.94H615.998L616.759 734.916L620.564 735.931L624.876 732.886H628.935L628.528 726.949L629.486 724.814L632.892 729.188L636.445 724.612L635.152 721.4L637.966 724.105L640.45 721.977L640.201 720.148L638.774 716.446L638.426 712.942L637.559 711.576L638.32 709.546L640.349 711.576L642.577 711.371L643.566 713.781L645.937 715.998L648.73 715.835L653.035 714.355L656.435 712.993L659.348 714.363L659.627 710.561L663.178 708.785L663.685 712.591L666.983 712.337L668.505 709.8L672.056 706.502L675.1 706.248L676.368 707.009L676.622 709.293H679.412L680.173 704.98L681.187 703.711L685.246 705.995L689.051 703.204L691.334 702.696L694.377 700.413L699.197 699.652L699.704 694.324L703.763 692.549L702.241 690.012L700.212 689.251L706.046 688.743L709.85 686.967L707.821 685.191L709.597 682.654L713.148 682.908L713.909 679.356L716.699 679.864L715.684 675.297L719.489 676.312V671.999H722.279L724.309 668.701L726.338 666.672L725.07 664.135L722.787 662.105L726.845 661.344L728.621 658.807L731.665 657.285H735.977L737.245 655.509L738.26 653.226L736.23 651.957L735.469 649.928L740.796 649.674L741.811 647.898L740.289 645.107L742.318 643.331L744.347 641.556L746.63 640.795L744.347 638.004L744.855 635.213L746.63 633.184L749.42 634.959L751.703 635.467L752.211 633.691L749.928 630.393L752.211 626.841L750.942 624.558L751.45 622.275L749.928 619.738L751.196 615.679L752.972 613.395L751.957 611.619L748.152 608.321L748.913 605.531L752.211 606.038L753.225 607.307L753.986 603.247L757.284 600.964L758.806 599.696L759.059 596.144L761.089 594.114L759.313 592.846H761.85L764.64 589.04L764.386 585.235L764.64 582.952L766.415 577.878L767.937 574.326L769.713 573.058L770.22 566.969L773.264 565.7L774.025 570.774L776.815 566.969L780.113 564.686L778.083 560.373L776.308 557.328L779.098 554.791V551.24L781.888 547.434L780.874 544.39L782.649 542.868L781.635 539.062L781.127 532.973L779.352 537.286L776.561 537.54L780.113 532.72L784.425 529.422L787.976 527.646L787.469 525.109L781.888 522.826L779.605 523.587L778.083 527.138L775.547 528.153L772.249 525.87L767.684 522.318L763.879 522.826L759.059 527.138L756.523 528.153L751.957 527.392L747.899 526.377L747.138 525.109L750.435 523.333L755.762 522.826L758.806 521.811L759.059 518.766L765.401 513.693L769.966 510.394L773.264 506.335L774.025 502.276L770.474 499.232L765.147 497.202L761.089 494.919L759.059 492.636L755.001 491.875L750.181 491.114L749.674 488.323L745.869 487.562L741.811 489.591L740.289 490.099L742.064 487.308L745.362 485.786L750.181 486.293L751.957 488.83L754.747 489.845H759.567L763.118 490.352L766.669 492.382L771.235 493.143L773.518 492.636L774.279 491.114L771.488 487.308L766.162 482.488L761.342 481.219L759.567 476.145L755.001 474.37L749.928 473.101L748.152 471.833L748.913 468.535L747.645 465.237L741.557 456.357L737.752 450.015L732.933 440.882L730.396 438.345L723.801 436.315L717.967 434.539L715.684 432.002L710.104 430.987L709.597 426.421L712.133 423.884L712.641 419.571L714.163 417.288L716.192 412.214L719.489 411.199L720.25 408.662L721.772 404.603L724.309 402.32L721.519 399.275L723.04 397.753L725.577 399.022L728.875 399.529L731.665 396.738L731.411 390.65L732.933 387.859L735.216 387.352L739.782 383.546L743.079 381.263L747.391 377.965L749.928 374.667L752.718 375.174L753.986 373.906L756.776 376.443L760.074 373.906L758.806 370.608L759.82 368.071L759.567 363.504L756.269 362.236L753.479 363.758L750.181 362.236L745.108 364.265L741.05 366.295L738.767 365.28L736.991 363.251L734.708 363.758L730.396 360.967L727.099 359.445L723.04 360.967L718.728 364.265L717.967 368.324L713.402 372.384L712.641 376.696L709.343 380.248L702.241 379.487L696.914 377.458L696.153 367.817L692.855 364.265L688.036 362.997L684.992 360.714L682.202 361.728L678.904 363.758L675.861 361.221L671.802 357.923L669.012 352.595L668.505 345.999L670.28 341.686L674.339 338.896L676.622 338.388L680.173 340.164L682.709 338.896L684.231 337.12H687.782L689.304 336.105L690.573 336.612L691.334 331.538L692.602 326.972L695.392 322.405L697.929 320.883V318.6L703.255 315.302L709.343 310.735L712.387 308.706L712.641 303.632L716.445 298.304L717.967 296.782L718.475 293.484L721.772 291.454L726.845 291.201L730.396 289.171L733.44 289.932L738.513 295.006L741.303 297.036L739.528 301.095L737.752 305.154L736.484 308.959L732.426 312.004L730.65 314.033L730.396 319.107L728.113 320.376L731.665 322.405L733.694 324.181L737.245 323.166L735.723 327.479L735.216 330.016L732.426 331.538L731.411 333.568L729.128 333.822L728.113 337.627L729.635 339.403L733.694 336.105L737.245 332.046L741.303 329.255L743.586 326.718L745.362 322.659L752.972 315.809L758.291 311.434L760.825 311.182L761.957 308.708L766.586 307.884L768.678 305.792L774.125 305.29L777.621 303.2L778.981 296.668L788.301 284.963L799.183 275.714L806.343 263.624L806.878 255.753L812.511 251.817L819.345 256.576L833.958 254.621L834.367 250.724L829.022 244.814L829.944 241.512L837.597 239.554L844.804 234.786L845.908 228.227L851.358 226.787L851.856 213.531L856.556 212.789L859.878 217.907L864.617 218.739L862.608 216.439L864.437 213.365L869.297 209.866L871.685 197.773L869.119 195.006L867.473 183.624L857.93 167.112L863.128 164.63L868.255 154.016L872.218 155.515L887.655 154.267L886.876 144.737L889.737 141.306L890.536 128.718L892.364 124.447L890.565 118.521L891.045 114.523L890.461 104.184L889.565 100.568L891.003 97.1471L893.647 94.9505L895 89.0575L890.367 83.9174L890.285 77.3232L885.488 75.2405L877.736 80.9692L873.729 86.4755L869.812 87.2048L865.563 90.4485L862.297 98.3443L852.322 102.873L845.361 103.442L840.676 105.874L832.233 99.0775L833.479 93.9269L827.817 88.1103L826.478 81.877L821.23 83.691L806.838 75.0878L802.302 77.2916L793.873 73.4572L788.523 76.9101L781.668 77.2867L775.507 71.1966L774.506 64.5402L770.878 63.0343L769.57 55.8172L760.463 46.3919L760.078 42.0355L750.81 30.5032L749.072 24.3606L744.935 18.5395L740.183 14.8199L737.925 10.8156L724.626 4.20666L719.02 6.70311L700.768 1L693.606 4.21048L682.405 6.93578L670.915 13.3389L665.119 15.105L659.78 24.7771L657.107 26.8976L656.757 31.9591L659.678 31.561L665.53 32.0415L666.401 35.8499L668.254 38.8161L667.899 46.6161L662.225 53.3612L658.137 68.2347L656.297 76.0919L653.505 84.4109L656.632 89.3461L653.972 94.7926L648.034 96.2114L641.574 103.826L636.54 107.482L628.113 107.031L619.361 103.6L612.453 125.449L613.41 128.908L611.338 131.786L610.429 140.957L606.616 144.313L609.623 150.726L614.109 153.973L617.399 150.316L629.628 147.775L636.181 150.812L640.271 143.243L650.628 141.356L656.733 145.088L661.175 145.674L663.999 149.911L673.144 155.361L678.156 165.037L674.889 168.858L669.156 170.212L661.838 168.392L658.851 169.961L654.247 169.14L645.457 176.153L641.247 175.293L639.729 179.659L632.536 180.611L627.266 185.911L624.519 192.563L624.544 196.87L616.414 205.442L601.119 207.566L598.274 212.981L586.883 224.093L571.118 223.381L567.512 220.403L558.238 220.116L552.227 236.58L562.777 249.25L559.276 252.056L556.287 255.351L548.754 259.525L537.883 274.143L523.245 281.849L503.538 283.55L497.197 285.163L489.119 284.069L486.02 286.749L477.137 289.095L463.28 296.263L448.988 305.343L444.371 303.902L441.176 299.502L434.687 301.213L416.946 296.476L403.447 293.118L397.836 286.351L369.713 281.807L354.503 284.409L337.835 281.404L323.619 280.255L309.516 276.754L301.709 266.322L296.309 248.261L293.089 246.144L293.137 241.874L285.645 239.926L272.393 230.495L264.519 223.039L236.994 219.069L229.728 215.163L224.26 214.062L221.594 211.087L222.322 203.925L228.5 195.416L227.171 188.836L229.792 185.536L230.277 180.253L224.572 169.341L223.007 160.224L217.877 152.608L215.058 153.236L209.646 147.54L206.753 148.443L202.583 148.432L200.522 145.606L197.199 138.28L190.061 133.485L190.156 130.714L186.864 125.058L188.515 122.51L188.262 118.383L183.625 119.495L178.835 117.438L173.067 118.397L172.365 123.015L170.059 128.422L162.598 131.682L155.472 130.486L149.757 143.655L150.558 154.026L148.998 159.399L142.49 160.627L136.305 163.65L133.841 160.799L129.479 158.453L123.632 158.135L110.202 150.517L108.2 155.553L97.4017 173.968L92.1015 185.003L96.3953 189.239L93.478 195.038L89.8911 192.581L84.1207 192.672L80.1102 187.525L69.1556 189.495L54.4914 189.496L50.8742 192.506L58.9282 197.309L56.8741 200.571L54.2982 210.764L57.0266 224.119L55.8958 228.236L56.5089 232.748L50.8335 234.36L50.5297 238.432L44.7995 240.686L44.4345 245.572L42.2173 255.667L37.8556 254.235L34.1318 256.55L25.165 258.044L10.951 262.211L3.05282 269.07L-7.59658 267.927L-16.9244 264.403L-24.3786 272.652L-29.7074 276.71L-34.1446 275.061L-39.3743 275.52L-41.6045 267.944L-47.2828 270.086L-54.0337 267.592L-54.3742 270.033L-63.4433 272.98L-69.032 272.047L-73.0349 275.49L-74.1837 283.346L-79.0714 284.276L-80.9356 288.474L-79.0725 294.744L-82 296.255L-80.6685 305.411L-75.5201 302.824L-65.3097 309.342L-67.8006 315.735L-66.9988 320.285L-67.8069 330.886L-67.717 336.066L-79.1692 336.186L-79.3415 339.436L-73.3778 343.398L-66.2865 345.128L-64.5243 350.579L-59.3709 352.63L-57.9558 361.361L-59.8368 366.952L-56.8913 373.539L-52.3369 374.463L-45.9835 381.716L-31.6557 388.439L-28.2704 388.325L-29.3293 392.997L-27.9139 400.796L-26.7223 409.197L-16.7834 416.558L-16.3565 419.948L-22.1363 421.993L-22.7129 436.67L-16.9801 443.587L-15.0205 446.386L-16.2679 449.119L-14.5151 453.382L-18.4414 457.864L-27.6844 459.674L-29.3125 454.448L-34.444 453.485L-35.4058 459.604L-32.4323 467.451L-33.7491 471.173L-33.4403 475.205L-34.6488 479.064L-34.7233 481.608L-28.8425 481.411L-26.4917 489.03L-22.7652 493.41L-16.327 495.102L-9.97636 500.476L-10.9859 503.329L-3.91492 509.934L1.20259 515.625L3.35843 520.089L13.8075 513.044L15.0088 516.767L19.6398 520.016L28.907 526.522L33.0262 532.389L40.5749 538.349L42.3982 546.488L47.2671 551.061L51.4304 545.705L55.0796 547.799L54.0065 556.987L66.5086 565.025L72.0132 564.493L71.4773 567.738L72.5094 572.428L78.155 573.636L84.7458 577.997L86.4947 583.126L89.4072 580.109L92.5409 583.599L95.2388 584.836L99.9738 581.892L110.191 590.346L115.935 589.422L119.029 591.655L137.861 587.44L142.336 589.918L142.457 593.513L139.599 599.785L140.68 603.404L142.492 603.192L148.456 596.848L155.587 590.855L165.73 586.196L171.569 588.189L177.764 594.371L189.35 595.883L197.152 601.353L201.314 602.975L205.685 601.816L208.656 600.664L209.542 602.243L216.536 599.998L218.137 597.721L217.189 595.981L219.408 593.931L223.151 593.451L227.093 590.462L228.709 585.751L231.858 584.916L238.155 584.701L245.206 581.82L245.204 578.841L248.185 578.497L250.388 576.222L253.803 575L256.979 572.609L259.819 575.512L269.622 579.628L273.662 579.11L275.363 575.584L284.67 571.761L288.226 576.051L290.777 576.095L289.943 578.198L285.339 580.088L285.882 583.969L291.513 580.611L292.901 583.731L294.415 587.878L290.178 590.811L288.346 594.167L294.847 594.165L297.98 596.195L304.221 596.74L308.003 599.913L311.616 595.766L315.295 594.49L317.963 597.725L321.932 599.464L324.026 606.698L328.318 616.194L330.344 613.686L334.896 616.527L334.086 624.272L334.916 627.687L334.449 643.082L331.431 649.389L332.475 654.334L329.245 655.737L325.852 660.441L322.743 660.57L321.12 665.202L314.877 667.676L313.133 673.486L313.752 675.881L310.464 676.988L308.942 679.549L309.589 684.572L311.255 686.413L312.024 690.712L309.335 695.139L309.942 697.655L315.224 695.826L318.174 692.801L327.477 692.172L329.886 693.682L335.051 693.144L331.44 698.241L334.092 702.231L335.791 713.174L339.391 716.331L347.361 716.409L348.197 719.283L344.469 724.874L345.235 729.196L342.1 733.342L341.116 737.507L344.725 739.073L346.736 738.692L357.188 741.152L356.537 746.291L359.483 749.39L362.413 755.272L364.979 752.675L369.701 754.653L374.675 750.551L380.052 748.664L384.736 760.695L389.519 759.796L394.084 760.909L395.028 750.502L390.318 737.791L393.4 731.967L396.036 733.151L403.057 732.802L406.925 729.905L409.91 725.5L416.503 728.773L418.847 731.735L420.898 731.89L427.826 724.489L431.16 729.213L433.769 724.608L440.118 730.916L441.877 726.71L445.078 723.55L447.781 726.046L451.139 724.43L458.233 721.697L458.469 717.453L468.093 710.958L473.287 715.955L480.811 720.013L485.625 718.43L488.859 721.537L492.834 719.865L498.595 722.021L498.741 725.106L495.046 728.03L494.721 731.425L496.355 733.015L498.165 740.096L504.242 741.618L507.448 745.389L514.938 748.44L521.703 746.545L525.356 748.938L528.708 747.624Z" stroke="#47645F"/>

<circle cx="663.5" cy="671.5" r="27.5" fill="url(#paint0_linear)"/>
<text x="560" y="671.5" fill="#1A5A38">FUDING</text>

<circle cx="754" cy="570" r="30" fill="url(#paint1_linear)"/>
<text x="620" y="565" fill="#1A5A38">HANGZHOU</text>

<circle cx="378" cy="708" r="29" fill="url(#paint2_linear)"/>
<text x="270" y="708" fill="#1A5A38">YUNNAN</text>

<defs>
<linearGradient id="paint0_linear" x1="636.773" y1="699" x2="702.222" y2="676.169" gradientUnits="userSpaceOnUse">
<stop stop-color="#1A5A38"/>
<stop offset="1" stop-color="#1A5A38" stop-opacity="0.87"/>
</linearGradient>
<linearGradient id="paint1_linear" x1="724.844" y1="600" x2="796.242" y2="575.094" gradientUnits="userSpaceOnUse">
<stop stop-color="#1A5A38"/>
<stop offset="1" stop-color="#1A5A38" stop-opacity="0.87"/>
</linearGradient>
<linearGradient id="paint2_linear" x1="349.816" y1="737" x2="418.834" y2="712.924" gradientUnits="userSpaceOnUse">
<stop stop-color="#1A5A38"/>
<stop offset="1" stop-color="#1A5A38" stop-opacity="0.87"/>
</linearGradient>
</defs>
</svg>
