<svg width="756" height="600" viewBox="0 0 756 600" fill="none" xmlns="http://www.w3.org/2000/svg">
<path fill-rule="evenodd" clip-rule="evenodd" d="M472.314 577.85L472.731 578.224H474.297L475.08 576.46L477.234 575.872V572.148L479.387 571.56L479.974 573.912L481.932 576.46L483.106 575.284L485.26 576.46L487.413 577.048L488.196 580.184L489.566 579.204L494.264 578.224L493.481 574.892L494.46 574.696L496.809 577.636L501.312 578.028L500.333 579.792L498.18 583.124L497.397 589.397L499.55 589.985L499.941 594.493L503.269 596.257L502.291 597.041L502.878 599.001L508.751 598.805L511.491 596.061L511.687 594.885L508.946 592.141L508.359 589.397L506.206 588.613L505.423 586.064L507.185 584.3L509.925 582.34L511.883 582.144L514.623 578.42L517.755 578.224L519.126 576.46L523.432 576.264L524.803 575.088H527.348L529.892 573.324V571.56L532.241 570.776L534.003 569.796H536.548H539.68L540.268 568.032L543.204 568.816L546.532 566.464H549.664L549.35 561.877L550.09 560.227L552.718 563.606L555.46 560.071L554.462 557.589L556.634 559.679L558.551 558.035L558.359 556.622L557.257 553.761L556.989 551.055L556.32 549.999L556.907 548.431L558.473 549.999L560.193 549.84L560.956 551.702L562.786 553.416L564.941 553.29L568.263 552.146L570.887 551.094L573.136 552.152L573.351 549.215L576.091 547.843L576.483 550.783L579.028 550.587L580.202 548.627L582.943 546.079L585.292 545.883L586.271 546.471L586.466 548.235H588.62L589.207 544.903L589.99 543.923L593.122 545.687L596.059 543.531L597.82 543.139L600.17 541.374L603.889 540.786L604.28 536.67L607.413 535.298L606.238 533.338L604.672 532.75L609.174 532.358L612.111 530.986L610.545 529.614L611.915 527.654L614.656 527.85L615.243 525.106L617.396 525.498L616.613 521.97L619.55 522.754V519.422H621.703L623.269 516.873L624.835 515.305L623.856 513.345L622.094 511.777L625.227 511.189L626.597 509.229L628.946 508.053H632.274L633.253 506.681L634.036 504.917L632.47 503.937L631.882 502.369L635.993 502.173L636.776 500.801L635.602 498.645L637.168 497.273L638.734 495.901L640.496 495.313L638.734 493.156L639.125 491L640.496 489.432L642.649 490.804L644.411 491.196L644.802 489.824L643.04 487.276L644.802 484.532L643.823 482.768L644.215 481.004L643.04 479.044L644.019 475.908L645.39 474.144L644.607 472.772L641.67 470.223L642.257 468.067L644.802 468.459L645.585 469.439L646.173 466.303L648.717 464.539L649.892 463.559L650.088 460.815L651.654 459.247L650.283 458.267H652.241L654.394 455.327L654.199 452.387L654.394 450.623L655.765 446.702L656.939 443.958L658.31 442.978L658.701 438.274L661.05 437.294L661.637 441.214L663.791 438.274L666.336 436.51L664.77 433.178L663.399 430.826L665.553 428.866V426.122L667.706 423.181L666.923 420.829L668.293 419.653L667.51 416.713L667.119 412.009L665.748 415.341L663.595 415.537L666.336 411.813L669.664 409.265L672.404 407.893L672.013 405.933L667.706 404.169L665.944 404.757L664.77 407.501L662.812 408.285L660.267 406.521L656.744 403.777L653.807 404.169L650.088 407.501L648.13 408.285L644.607 407.697L641.474 406.913L640.887 405.933L643.432 404.561L647.543 404.169L649.892 403.385L650.088 401.032L654.982 397.112L658.505 394.564L661.05 391.428L661.637 388.292L658.897 385.94L654.786 384.372L651.654 382.608L650.088 380.844L646.956 380.256L643.236 379.668L642.845 377.511L639.908 376.923L636.776 378.491L635.602 378.883L636.972 376.727L639.517 375.551L643.236 375.943L644.607 377.903L646.76 378.687H650.479L653.22 379.08L655.96 380.648L659.484 381.236L661.246 380.844L661.833 379.668L659.68 376.727L655.569 373.003L651.85 372.023L650.479 368.103L646.956 366.731L643.04 365.751L641.67 364.771L642.257 362.223L641.279 359.675L636.58 352.814L633.644 347.914L629.925 340.858L627.967 338.898L622.877 337.33L618.375 335.958L616.613 333.998L612.306 333.214L611.915 329.685L613.873 327.725L614.264 324.393L615.439 322.629L617.005 318.709L619.55 317.925L620.137 315.965L621.311 312.829L623.269 311.065L621.116 308.712L622.29 307.536L624.248 308.516L626.793 308.908L628.946 306.752L628.75 302.048L629.925 299.892L631.686 299.5L635.21 296.56L637.755 294.796L641.083 292.248L643.04 289.7L645.194 290.092L646.173 289.112L648.326 291.072L650.871 289.112L649.892 286.564L650.675 284.603L650.479 281.075L647.934 280.095L645.781 281.271L643.236 280.095L639.321 281.663L636.189 283.231L634.427 282.447L633.057 280.879L631.295 281.271L627.967 279.115L625.422 277.939L622.29 279.115L618.962 281.663L618.375 284.799L614.851 287.936L614.264 291.268L611.719 294.012L606.238 293.424L602.127 291.856L601.54 284.407L598.995 281.663L595.276 280.683L592.926 278.919L590.773 279.703L588.228 281.271L585.879 279.311L582.747 276.763L580.594 272.647L580.202 267.551L581.573 264.219L584.705 262.062L586.466 261.67L589.207 263.043L591.165 262.062L592.339 260.69H595.08L596.254 259.906L597.233 260.298L597.82 256.378L598.799 252.85L600.952 249.322L602.91 248.146V246.382L607.021 243.834L611.719 240.306L614.068 238.737L614.264 234.817L617.2 230.701L618.375 229.525L618.766 226.977L621.311 225.409L625.227 225.213L627.967 223.645L630.316 224.233L634.231 228.153L636.385 229.721L635.014 232.857L633.644 235.993L632.665 238.933L629.533 241.286L628.163 242.854L627.967 246.774L626.205 247.754L628.946 249.322L630.512 250.694L633.253 249.91L632.078 253.242L631.686 255.202L629.533 256.378L628.75 257.946L626.988 258.142L626.205 261.082L627.38 262.454L630.512 259.906L633.253 256.77L636.385 254.614L638.147 252.654L639.517 249.518L645.39 244.226L649.495 240.845L651.45 240.651L652.324 238.739L655.896 238.103L657.511 236.486L661.715 236.098L664.413 234.484L665.462 229.437L672.655 220.393L681.053 213.248L686.579 203.907L686.992 197.826L691.339 194.784L696.614 198.462L707.891 196.951L708.207 193.94L704.081 189.374L704.793 186.823L710.699 185.31L716.262 181.626L717.113 176.559L721.319 175.446L721.704 165.204L725.331 164.631L727.895 168.586L731.552 169.229L730.001 167.451L731.413 165.076L735.163 162.373L737.006 153.03L735.026 150.892L733.756 142.098L726.391 129.341L730.403 127.423L734.359 119.223L737.418 120.38L749.331 119.417L748.731 112.054L750.938 109.403L751.555 99.6773L752.965 96.3772L751.577 91.7988L751.948 88.7103L751.497 80.722L750.806 77.9279L751.916 75.2851L753.956 73.5881L755 69.0351L751.425 65.0638L751.361 59.969L747.659 58.3599L741.676 62.786L738.584 67.0402L735.561 67.6036L732.282 70.1097L729.762 76.2102L722.063 79.709L716.691 80.1489L713.076 82.0279L706.56 76.7767L707.521 72.7972L703.151 68.3032L702.118 63.4874L698.068 64.8889L686.961 58.2419L683.46 59.9446L676.955 56.9821L672.826 59.6498L667.536 59.9408L662.781 55.2356L662.009 50.0927L659.209 48.9293L658.199 43.3533L651.171 36.0712L650.874 32.7054L643.721 23.7955L642.38 19.0496L639.187 14.5522L635.52 11.6784L633.777 8.5846L623.513 3.47848L619.187 5.40726L605.102 1.00098L599.574 3.48142L590.93 5.58702L582.062 10.5342L577.59 11.8987L573.469 19.3714L571.406 21.0097L571.136 24.9203L573.39 24.6127L577.907 24.984L578.578 27.9264L580.009 30.2181L579.735 36.2444L575.356 41.4557L572.201 52.9471L570.781 59.0177L568.626 65.445L571.04 69.2581L568.987 73.4661L564.404 74.5623L559.418 80.4452L555.533 83.2703L549.03 82.9219L542.275 80.2708L536.944 97.1513L537.683 99.8236L536.084 102.048L535.382 109.133L532.439 111.726L534.76 116.681L538.222 119.189L540.761 116.364L550.199 114.401L555.256 116.747L558.413 110.899L566.406 109.441L571.118 112.325L574.545 112.777L576.725 116.051L583.783 120.262L587.651 127.737L585.129 130.69L580.705 131.736L575.057 130.33L572.752 131.542L569.198 130.908L562.415 136.326L559.166 135.661L557.995 139.034L552.443 139.771L548.376 143.865L546.256 149.005L546.276 152.332L540.001 158.955L528.197 160.596L526.002 164.779L517.211 173.365L505.044 172.814L502.261 170.514L495.104 170.292L490.465 183.012L498.607 192.801L495.905 194.969L493.598 197.515L487.784 200.74L479.395 212.034L468.098 217.988L452.889 219.302L447.995 220.548L441.761 219.703L439.369 221.774L432.514 223.586L421.82 229.124L410.79 236.139L407.227 235.026L404.761 231.627L399.753 232.948L386.062 229.289L375.644 226.695L371.313 221.466L349.609 217.955L337.871 219.966L325.008 217.643L314.037 216.756L303.153 214.051L297.127 205.992L292.96 192.037L290.475 190.402L290.512 187.103L284.73 185.597L274.503 178.311L268.426 172.55L247.183 169.483L241.576 166.466L237.356 165.615L235.299 163.317L235.86 157.783L240.628 151.209L239.603 146.125L241.625 143.576L242 139.493L237.597 131.063L236.389 124.019L232.43 118.135L230.255 118.62L226.078 114.219L223.845 114.917L220.627 114.908L219.037 112.725L216.472 107.065L210.963 103.361L211.037 101.219L208.496 96.8498L209.77 94.8806L209.575 91.6921L205.996 92.5515L202.299 90.962L197.848 91.7033L197.306 95.2708L195.526 99.4487L189.768 101.967L184.269 101.043L179.859 111.217L180.477 119.231L179.273 123.382L174.25 124.33L169.477 126.666L167.576 124.463L164.209 122.651L159.697 122.405L149.332 116.519L147.787 120.41L139.453 134.637L135.363 143.163L138.677 146.436L136.425 150.917L133.657 149.018L129.204 149.089L126.109 145.112L117.654 146.634L106.337 146.635L103.546 148.96L109.761 152.671L108.176 155.191L106.188 163.067L108.294 173.385L107.421 176.566L107.894 180.052L103.514 181.297L103.28 184.443L98.8576 186.185L98.5759 189.96L96.8647 197.759L93.4986 196.653L90.6247 198.441L83.7046 199.596L72.735 202.815L66.6395 208.114L58.4209 207.232L51.2221 204.509L45.4693 210.882L41.3568 214.018L37.9324 212.743L33.8964 213.098L32.1752 207.244L27.793 208.899L22.583 206.972L22.3203 208.859L15.3212 211.136L11.008 210.415L7.91881 213.075L7.03225 219.144L3.26013 219.863L1.82141 223.106L3.25929 227.951L1 229.118L2.02758 236.192L6.00086 234.193L13.8807 239.229L11.9584 244.169L12.5772 247.684L11.9535 255.874L12.0229 259.876L3.18468 259.969L3.05173 262.48L7.6542 265.541L13.1269 266.877L14.4869 271.089L18.464 272.674L19.5561 279.42L18.1044 283.739L20.3776 288.828L23.8925 289.542L28.7958 295.146L39.8532 300.34L42.4658 300.252L41.6487 303.862L42.7409 309.887L43.6606 316.378L51.3309 322.065L51.6604 324.684L47.1998 326.265L46.7548 337.604L51.1791 342.948L52.6914 345.11L51.7288 347.222L53.0815 350.516L50.0514 353.979L42.9181 355.377L41.6616 351.339L37.7014 350.595L36.9591 355.323L39.2539 361.386L38.2377 364.261L38.476 367.376L37.5433 370.358L37.4858 372.324L42.0243 372.171L43.8386 378.057L46.7145 381.441L51.6831 382.749L56.5843 386.901L55.8051 389.105L61.2622 394.208L65.2116 398.605L66.8754 402.054L74.9395 396.611L75.8666 399.487L79.4405 401.998L86.5925 407.024L89.7715 411.558L95.5972 416.162L97.0044 422.451L100.762 425.983L103.975 421.845L106.791 423.464L105.963 430.562L115.612 436.772L119.86 436.361L119.446 438.868L120.243 442.492L124.6 443.425L129.686 446.794L131.036 450.757L133.284 448.426L135.702 451.122L137.784 452.078L141.438 449.804L149.324 456.336L153.756 455.621L156.144 457.347L170.678 454.091L174.131 456.005L174.225 458.783L172.019 463.628L172.854 466.424L174.252 466.261L178.855 461.359L184.357 456.729L192.185 453.129L196.692 454.669L201.473 459.445L210.415 460.614L216.436 464.839L219.648 466.093L223.021 465.197L225.314 464.307L225.998 465.527L231.395 463.792L232.631 462.033L231.899 460.689L233.611 459.105L236.501 458.735L239.543 456.425L240.79 452.785L243.22 452.14L248.08 451.974L253.521 449.748L253.52 447.447L255.82 447.18L257.521 445.423L260.156 444.479L262.607 442.632L264.799 444.875L272.364 448.055L275.482 447.654L276.795 444.93L283.977 441.976L286.722 445.291L288.691 445.325L288.047 446.95L284.494 448.41L284.913 451.408L289.259 448.814L290.33 451.225L291.498 454.429L288.229 456.695L286.815 459.288L291.832 459.286L294.25 460.855L299.066 461.276L301.985 463.727L304.773 460.523L307.612 459.537L309.672 462.036L312.735 463.38L314.35 468.97L317.663 476.306L319.227 474.368L322.739 476.563L322.115 482.547L322.755 485.186L322.395 497.08L320.065 501.952L320.871 505.773L318.379 506.857L315.76 510.492L313.361 510.592L312.108 514.17L307.29 516.081L305.944 520.57L306.422 522.421L303.884 523.276L302.709 525.254L303.209 529.136L304.495 530.558L305.088 533.879L303.013 537.299L303.481 539.244L307.557 537.831L309.835 535.493L317.014 535.007L318.873 536.174L322.859 535.758L320.072 539.696L322.119 542.779L323.43 551.234L326.209 553.673L332.359 553.733L333.005 555.954L330.127 560.273L330.719 563.612L328.299 566.815L327.54 570.033L330.325 571.243L331.877 570.949L339.944 572.849L339.441 576.82L341.715 579.214L343.976 583.759L345.956 581.752L349.6 583.28L353.439 580.112L357.589 578.654L361.204 587.949L364.895 587.255L368.418 588.114L369.146 580.074L365.512 570.253L367.89 565.753L369.924 566.668L375.343 566.399L378.328 564.16L380.632 560.757L385.72 563.285L387.529 565.574L389.112 565.693L394.458 559.976L397.031 563.625L399.045 560.068L403.945 564.941L405.302 561.692L407.773 559.25L409.859 561.179L412.45 559.93L417.925 557.818L418.107 554.54L425.534 549.522L429.543 553.382L435.35 556.518L439.065 555.295L441.561 557.695L444.628 556.403L449.074 558.069L449.187 560.453L446.335 562.712L446.084 565.334L447.346 566.563L448.743 572.034L453.432 573.209L455.906 576.123L461.687 578.481L466.908 577.016L469.727 578.865L472.314 577.85Z" stroke="#47645F" stroke-width="0.5"/>
<circle cx="576" cy="519" r="21" fill="#1A5A38"/>
<path d="M459.628 519V503.38H470.122V506.042H462.664V510.068H468.868V512.532H462.664V519H459.628ZM478.861 516.426C479.579 516.426 480.181 516.279 480.665 515.986C481.163 515.693 481.559 515.311 481.853 514.842C482.161 514.373 482.373 513.837 482.491 513.236C482.623 512.62 482.689 511.989 482.689 511.344V503.38H485.703V511.344C485.703 512.415 485.571 513.419 485.307 514.358C485.057 515.297 484.654 516.118 484.097 516.822C483.554 517.526 482.85 518.083 481.985 518.494C481.119 518.905 480.085 519.11 478.883 519.11C477.636 519.11 476.573 518.897 475.693 518.472C474.827 518.032 474.123 517.46 473.581 516.756C473.038 516.037 472.642 515.209 472.393 514.27C472.158 513.331 472.041 512.356 472.041 511.344V503.38H475.077V511.344C475.077 512.004 475.135 512.642 475.253 513.258C475.385 513.859 475.597 514.395 475.891 514.864C476.199 515.333 476.595 515.715 477.079 516.008C477.563 516.287 478.157 516.426 478.861 516.426ZM488.761 519V503.38H494.437C495.713 503.38 496.827 503.585 497.781 503.996C498.749 504.407 499.555 504.964 500.201 505.668C500.846 506.372 501.33 507.201 501.653 508.154C501.975 509.093 502.137 510.097 502.137 511.168C502.137 512.356 501.953 513.434 501.587 514.402C501.235 515.355 500.721 516.177 500.047 516.866C499.372 517.541 498.558 518.069 497.605 518.45C496.666 518.817 495.61 519 494.437 519H488.761ZM499.079 511.168C499.079 510.42 498.976 509.731 498.771 509.1C498.565 508.469 498.265 507.927 497.869 507.472C497.473 507.017 496.981 506.665 496.395 506.416C495.823 506.167 495.17 506.042 494.437 506.042H491.797V516.338H494.437C495.185 516.338 495.845 516.206 496.417 515.942C497.003 515.678 497.487 515.319 497.869 514.864C498.265 514.395 498.565 513.845 498.771 513.214C498.976 512.583 499.079 511.901 499.079 511.168ZM504.509 519V503.38H507.545V519H504.509ZM513.84 508.99V519H510.804V503.38H513.158L521.298 513.632V503.402H524.334V519H521.87L513.84 508.99ZM538.429 517.24C537.182 518.487 535.73 519.11 534.073 519.11C533.046 519.11 532.078 518.905 531.169 518.494C530.274 518.083 529.49 517.519 528.815 516.8C528.155 516.081 527.627 515.238 527.231 514.27C526.85 513.287 526.659 512.231 526.659 511.102C526.659 510.031 526.85 509.027 527.231 508.088C527.627 507.135 528.162 506.306 528.837 505.602C529.526 504.883 530.333 504.319 531.257 503.908C532.181 503.483 533.186 503.27 534.271 503.27C535.738 503.27 536.992 503.578 538.033 504.194C539.089 504.81 539.881 505.639 540.409 506.68L538.143 508.352C537.747 507.575 537.19 506.981 536.471 506.57C535.767 506.159 534.997 505.954 534.161 505.954C533.501 505.954 532.892 506.093 532.335 506.372C531.792 506.651 531.323 507.032 530.927 507.516C530.546 508 530.245 508.557 530.025 509.188C529.82 509.819 529.717 510.486 529.717 511.19C529.717 511.923 529.834 512.613 530.069 513.258C530.304 513.889 530.626 514.439 531.037 514.908C531.448 515.377 531.932 515.751 532.489 516.03C533.061 516.294 533.677 516.426 534.337 516.426C535.848 516.426 537.212 515.715 538.429 514.292V513.192H535.283V510.97H540.937V519H538.429V517.24Z" fill="#1A5A38"/>
<circle cx="646.5" cy="440.5" r="23.5" fill="#1A5A38"/>
<path d="M503.429 422.718V438.338H500.415V431.672H493.331V438.338H490.295V422.718H493.331V429.032H500.415V422.718H503.429ZM511.132 422.718H513.816L519.756 438.338H516.632L515.18 434.444H509.724L508.294 438.338H505.17L511.132 422.718ZM514.63 432.31L512.474 426.172L510.23 432.31H514.63ZM524.505 428.328V438.338H521.469V422.718H523.823L531.963 432.97V422.74H534.999V438.338H532.535L524.505 428.328ZM549.095 436.578C547.848 437.825 546.396 438.448 544.739 438.448C543.712 438.448 542.744 438.243 541.835 437.832C540.94 437.421 540.155 436.857 539.481 436.138C538.821 435.419 538.293 434.576 537.897 433.608C537.515 432.625 537.325 431.569 537.325 430.44C537.325 429.369 537.515 428.365 537.897 427.426C538.293 426.473 538.828 425.644 539.503 424.94C540.192 424.221 540.999 423.657 541.923 423.246C542.847 422.821 543.851 422.608 544.937 422.608C546.403 422.608 547.657 422.916 548.699 423.532C549.755 424.148 550.547 424.977 551.075 426.018L548.809 427.69C548.413 426.913 547.855 426.319 547.137 425.908C546.433 425.497 545.663 425.292 544.827 425.292C544.167 425.292 543.558 425.431 543.001 425.71C542.458 425.989 541.989 426.37 541.593 426.854C541.211 427.338 540.911 427.895 540.691 428.526C540.485 429.157 540.383 429.824 540.383 430.528C540.383 431.261 540.5 431.951 540.735 432.596C540.969 433.227 541.292 433.777 541.703 434.246C542.113 434.715 542.597 435.089 543.155 435.368C543.727 435.632 544.343 435.764 545.003 435.764C546.513 435.764 547.877 435.053 549.095 433.63V432.53H545.949V430.308H551.603V438.338H549.095V436.578ZM553.222 436.05L562.044 425.38H553.464V422.718H565.542V425.006L557.006 435.676H565.608V438.338H553.222V436.05ZM581.117 422.718V438.338H578.103V431.672H571.019V438.338H567.983V422.718H571.019V429.032H578.103V422.718H581.117ZM591.042 438.448C589.898 438.448 588.856 438.228 587.918 437.788C586.994 437.333 586.194 436.739 585.52 436.006C584.86 435.258 584.346 434.407 583.98 433.454C583.613 432.501 583.43 431.525 583.43 430.528C583.43 429.487 583.62 428.489 584.002 427.536C584.398 426.583 584.933 425.739 585.608 425.006C586.297 424.273 587.111 423.693 588.05 423.268C588.988 422.828 590.008 422.608 591.108 422.608C592.237 422.608 593.264 422.843 594.188 423.312C595.126 423.767 595.926 424.368 596.586 425.116C597.246 425.864 597.759 426.715 598.126 427.668C598.492 428.621 598.676 429.589 598.676 430.572C598.676 431.613 598.485 432.611 598.104 433.564C597.722 434.503 597.194 435.339 596.52 436.072C595.845 436.791 595.038 437.37 594.1 437.81C593.161 438.235 592.142 438.448 591.042 438.448ZM586.51 430.528C586.51 431.203 586.612 431.855 586.818 432.486C587.023 433.117 587.316 433.674 587.698 434.158C588.094 434.642 588.57 435.031 589.128 435.324C589.7 435.617 590.345 435.764 591.064 435.764C591.797 435.764 592.442 435.617 593 435.324C593.572 435.016 594.048 434.613 594.43 434.114C594.826 433.615 595.119 433.058 595.31 432.442C595.515 431.811 595.618 431.173 595.618 430.528C595.618 429.853 595.508 429.201 595.288 428.57C595.082 427.939 594.782 427.382 594.386 426.898C594.004 426.414 593.528 426.033 592.956 425.754C592.398 425.461 591.768 425.314 591.064 425.314C590.33 425.314 589.678 425.468 589.106 425.776C588.534 426.069 588.057 426.465 587.676 426.964C587.294 427.448 587.001 428.005 586.796 428.636C586.605 429.252 586.51 429.883 586.51 430.528ZM607.604 435.764C608.323 435.764 608.924 435.617 609.408 435.324C609.907 435.031 610.303 434.649 610.596 434.18C610.904 433.711 611.117 433.175 611.234 432.574C611.366 431.958 611.432 431.327 611.432 430.682V422.718H614.446V430.682C614.446 431.753 614.314 432.757 614.05 433.696C613.801 434.635 613.398 435.456 612.84 436.16C612.298 436.864 611.594 437.421 610.728 437.832C609.863 438.243 608.829 438.448 607.626 438.448C606.38 438.448 605.316 438.235 604.436 437.81C603.571 437.37 602.867 436.798 602.324 436.094C601.782 435.375 601.386 434.547 601.136 433.608C600.902 432.669 600.784 431.694 600.784 430.682V422.718H603.82V430.682C603.82 431.342 603.879 431.98 603.996 432.596C604.128 433.197 604.341 433.733 604.634 434.202C604.942 434.671 605.338 435.053 605.822 435.346C606.306 435.625 606.9 435.764 607.604 435.764Z" fill="#1A5A38"/>
<circle cx="356" cy="547" r="22" fill="#1A5A38"/>
<path d="M227.388 530.38L231.238 537.904L235.154 530.38H238.432L232.756 540.544V546H229.742V540.5L224.088 530.38H227.388ZM246.751 543.426C247.47 543.426 248.071 543.279 248.555 542.986C249.054 542.693 249.45 542.311 249.743 541.842C250.051 541.373 250.264 540.837 250.381 540.236C250.513 539.62 250.579 538.989 250.579 538.344V530.38H253.593V538.344C253.593 539.415 253.461 540.419 253.197 541.358C252.948 542.297 252.545 543.118 251.987 543.822C251.445 544.526 250.741 545.083 249.875 545.494C249.01 545.905 247.976 546.11 246.773 546.11C245.527 546.11 244.463 545.897 243.583 545.472C242.718 545.032 242.014 544.46 241.471 543.756C240.929 543.037 240.533 542.209 240.283 541.27C240.049 540.331 239.931 539.356 239.931 538.344V530.38H242.967V538.344C242.967 539.004 243.026 539.642 243.143 540.258C243.275 540.859 243.488 541.395 243.781 541.864C244.089 542.333 244.485 542.715 244.969 543.008C245.453 543.287 246.047 543.426 246.751 543.426ZM259.687 535.99V546H256.651V530.38H259.005L267.145 540.632V530.402H270.181V546H267.717L259.687 535.99ZM276.467 535.99V546H273.431V530.38H275.785L283.925 540.632V530.402H286.961V546H284.497L276.467 535.99ZM294.654 530.38H297.338L303.278 546H300.154L298.702 542.106H293.246L291.816 546H288.692L294.654 530.38ZM298.152 539.972L295.996 533.834L293.752 539.972H298.152ZM308.027 535.99V546H304.991V530.38H307.345L315.485 540.632V530.402H318.521V546H316.057L308.027 535.99Z" fill="#1A5A38"/>
</svg>
