<svg width="721" height="776" viewBox="0 0 721 776" fill="none" xmlns="http://www.w3.org/2000/svg">
<path fill-rule="evenodd" clip-rule="evenodd" d="M353.708 747.624L354.248 748.108H356.278L357.292 745.825L360.082 745.064V740.244L362.873 739.482L363.634 742.527L366.17 745.825L367.692 744.303L370.482 745.825L373.273 746.586L374.287 750.645L376.063 749.377L382.15 748.108L381.136 743.795L382.404 743.542L385.448 747.347L391.282 747.854L390.014 750.138L387.224 754.451L386.209 762.569L388.999 763.33L389.506 769.165L393.819 771.448L392.55 772.463L393.311 775L400.921 774.746L404.472 771.194L404.726 769.672L401.175 766.121L400.414 762.569L397.623 761.554L396.609 758.256L398.892 755.973L402.443 753.436L404.979 753.182L408.53 748.362L412.589 748.108L414.365 745.825L419.945 745.571L421.72 744.049H425.018L428.316 741.766V739.482L431.359 738.468L433.642 737.199H436.94H440.998L441.759 734.916L445.564 735.931L449.876 732.886H453.935L453.528 726.949L454.486 724.814L457.892 729.188L461.445 724.612L460.152 721.4L462.966 724.105L465.45 721.977L465.201 720.148L463.774 716.446L463.426 712.942L462.559 711.576L463.32 709.546L465.349 711.576L467.577 711.371L468.566 713.781L470.937 715.998L473.73 715.835L478.035 714.355L481.435 712.993L484.348 714.363L484.627 710.561L488.178 708.785L488.685 712.591L491.983 712.337L493.505 709.8L497.056 706.502L500.1 706.248L501.368 707.009L501.622 709.293H504.412L505.173 704.98L506.187 703.711L510.246 705.995L514.051 703.204L516.334 702.696L519.377 700.413L524.197 699.652L524.704 694.324L528.763 692.549L527.241 690.012L525.212 689.251L531.046 688.743L534.85 686.967L532.821 685.191L534.597 682.654L538.148 682.908L538.909 679.356L541.699 679.864L540.684 675.297L544.489 676.312V671.999H547.279L549.309 668.701L551.338 666.672L550.07 664.135L547.787 662.105L551.845 661.344L553.621 658.807L556.665 657.285H560.977L562.245 655.509L563.26 653.226L561.23 651.957L560.469 649.928L565.796 649.674L566.811 647.898L565.289 645.107L567.318 643.331L569.347 641.556L571.63 640.795L569.347 638.004L569.855 635.213L571.63 633.184L574.42 634.959L576.703 635.467L577.211 633.691L574.928 630.393L577.211 626.841L575.942 624.558L576.45 622.275L574.928 619.738L576.196 615.679L577.972 613.395L576.957 611.619L573.152 608.321L573.913 605.531L577.211 606.038L578.225 607.307L578.986 603.247L582.284 600.964L583.806 599.696L584.059 596.144L586.089 594.114L584.313 592.846H586.85L589.64 589.04L589.386 585.235L589.64 582.952L591.415 577.878L592.937 574.326L594.713 573.058L595.22 566.969L598.264 565.7L599.025 570.774L601.815 566.969L605.113 564.686L603.083 560.373L601.308 557.328L604.098 554.791V551.24L606.888 547.434L605.874 544.39L607.649 542.868L606.635 539.062L606.127 532.973L604.352 537.286L601.561 537.54L605.113 532.72L609.425 529.422L612.976 527.646L612.469 525.109L606.888 522.826L604.605 523.587L603.083 527.138L600.547 528.153L597.249 525.87L592.684 522.318L588.879 522.826L584.059 527.138L581.523 528.153L576.957 527.392L572.899 526.377L572.138 525.109L575.435 523.333L580.762 522.826L583.806 521.811L584.059 518.766L590.401 513.693L594.966 510.394L598.264 506.335L599.025 502.276L595.474 499.232L590.147 497.202L586.089 494.919L584.059 492.636L580.001 491.875L575.181 491.114L574.674 488.323L570.869 487.562L566.811 489.591L565.289 490.099L567.064 487.308L570.362 485.786L575.181 486.293L576.957 488.83L579.747 489.845H584.567L588.118 490.352L591.669 492.382L596.235 493.143L598.518 492.636L599.279 491.114L596.488 487.308L591.162 482.488L586.342 481.219L584.567 476.145L580.001 474.37L574.928 473.101L573.152 471.833L573.913 468.535L572.645 465.237L566.557 456.357L562.752 450.015L557.933 440.882L555.396 438.345L548.801 436.315L542.967 434.539L540.684 432.002L535.104 430.987L534.597 426.421L537.133 423.884L537.641 419.571L539.163 417.288L541.192 412.214L544.489 411.199L545.25 408.662L546.772 404.603L549.309 402.32L546.519 399.275L548.04 397.753L550.577 399.022L553.875 399.529L556.665 396.738L556.411 390.65L557.933 387.859L560.216 387.352L564.782 383.546L568.079 381.263L572.391 377.965L574.928 374.667L577.718 375.174L578.986 373.906L581.776 376.443L585.074 373.906L583.806 370.608L584.82 368.071L584.567 363.504L581.269 362.236L578.479 363.758L575.181 362.236L570.108 364.265L566.05 366.295L563.767 365.28L561.991 363.251L559.708 363.758L555.396 360.967L552.099 359.445L548.04 360.967L543.728 364.265L542.967 368.324L538.402 372.384L537.641 376.696L534.343 380.248L527.241 379.487L521.914 377.458L521.153 367.817L517.855 364.265L513.036 362.997L509.992 360.714L507.202 361.728L503.904 363.758L500.861 361.221L496.802 357.923L494.012 352.595L493.505 345.999L495.28 341.686L499.339 338.896L501.622 338.388L505.173 340.164L507.709 338.896L509.231 337.12H512.782L514.304 336.105L515.573 336.612L516.334 331.538L517.602 326.972L520.392 322.405L522.929 320.883V318.6L528.255 315.302L534.343 310.735L537.387 308.706L537.641 303.632L541.445 298.304L542.967 296.782L543.475 293.484L546.772 291.454L551.845 291.201L555.396 289.171L558.44 289.932L563.513 295.006L566.303 297.036L564.528 301.095L562.752 305.154L561.484 308.959L557.426 312.004L555.65 314.033L555.396 319.107L553.113 320.376L556.665 322.405L558.694 324.181L562.245 323.166L560.723 327.479L560.216 330.016L557.426 331.538L556.411 333.568L554.128 333.822L553.113 337.627L554.635 339.403L558.694 336.105L562.245 332.046L566.303 329.255L568.586 326.718L570.362 322.659L577.972 315.809L583.291 311.434L585.825 311.182L586.957 308.708L591.586 307.884L593.678 305.792L599.125 305.29L602.621 303.2L603.981 296.668L613.301 284.963L624.183 275.714L631.343 263.624L631.878 255.753L637.511 251.817L644.345 256.576L658.958 254.621L659.367 250.724L654.022 244.814L654.944 241.512L662.597 239.554L669.804 234.786L670.908 228.227L676.358 226.787L676.856 213.531L681.556 212.789L684.878 217.907L689.617 218.739L687.608 216.439L689.437 213.365L694.297 209.866L696.685 197.773L694.119 195.006L692.473 183.624L682.93 167.112L688.128 164.63L693.255 154.016L697.218 155.515L712.655 154.267L711.876 144.737L714.737 141.306L715.536 128.718L717.364 124.447L715.565 118.521L716.045 114.523L715.461 104.184L714.565 100.568L716.003 97.1471L718.647 94.9505L720 89.0575L715.367 83.9174L715.285 77.3232L710.488 75.2405L702.736 80.9692L698.729 86.4755L694.812 87.2048L690.563 90.4485L687.297 98.3443L677.322 102.873L670.361 103.442L665.676 105.874L657.233 99.0775L658.479 93.9269L652.817 88.1103L651.478 81.877L646.23 83.691L631.838 75.0878L627.302 77.2916L618.873 73.4572L613.523 76.9101L606.668 77.2867L600.507 71.1966L599.506 64.5402L595.878 63.0343L594.57 55.8172L585.463 46.3919L585.078 42.0355L575.81 30.5032L574.072 24.3606L569.935 18.5395L565.183 14.8199L562.925 10.8156L549.626 4.20666L544.02 6.70311L525.768 1L518.606 4.21048L507.405 6.93578L495.915 13.3389L490.119 15.105L484.78 24.7771L482.107 26.8976L481.757 31.9591L484.678 31.561L490.53 32.0415L491.401 35.8499L493.254 38.8161L492.899 46.6161L487.225 53.3612L483.137 68.2347L481.297 76.0919L478.505 84.4109L481.632 89.3461L478.972 94.7926L473.034 96.2114L466.574 103.826L461.54 107.482L453.113 107.031L444.361 103.6L437.453 125.449L438.41 128.908L436.338 131.786L435.429 140.957L431.616 144.313L434.623 150.726L439.109 153.973L442.399 150.316L454.628 147.775L461.181 150.812L465.271 143.243L475.628 141.356L481.733 145.088L486.175 145.674L488.999 149.911L498.144 155.361L503.156 165.037L499.889 168.858L494.156 170.212L486.838 168.392L483.851 169.961L479.247 169.14L470.457 176.153L466.247 175.293L464.729 179.659L457.536 180.611L452.266 185.911L449.519 192.563L449.544 196.87L441.414 205.442L426.119 207.566L423.274 212.981L411.883 224.093L396.118 223.381L392.512 220.403L383.238 220.116L377.227 236.58L387.777 249.25L384.276 252.056L381.287 255.351L373.754 259.525L362.883 274.143L348.245 281.849L328.538 283.55L322.197 285.163L314.119 284.069L311.02 286.749L302.137 289.095L288.28 296.263L273.988 305.343L269.371 303.902L266.176 299.502L259.687 301.213L241.946 296.476L228.447 293.118L222.836 286.351L194.713 281.807L179.503 284.409L162.835 281.404L148.619 280.255L134.516 276.754L126.709 266.322L121.309 248.261L118.089 246.144L118.137 241.874L110.645 239.926L97.3926 230.495L89.519 223.039L61.9937 219.069L54.7282 215.163L49.2596 214.062L46.5939 211.087L47.3219 203.925L53.4998 195.416L52.1714 188.836L54.7917 185.536L55.2768 180.253L49.5718 169.341L48.0072 160.224L42.877 152.608L40.0583 153.236L34.6464 147.54L31.7531 148.443L27.5828 148.432L25.5223 145.606L22.1992 138.28L15.0606 133.485L15.1563 130.714L11.8638 125.058L13.515 122.51L13.2619 118.383L8.62542 119.495L3.83469 117.438L-1.93311 118.397L-2.63512 123.015L-4.94122 128.422L-12.4024 131.682L-19.5283 130.486L-25.2429 143.655L-24.4416 154.026L-26.0022 159.399L-32.5098 160.627L-38.6951 163.65L-41.1586 160.799L-45.5206 158.453L-51.3678 158.135L-64.7979 150.517L-66.8003 155.553L-77.5983 173.968L-82.8985 185.003L-78.6047 189.239L-81.522 195.038L-85.1089 192.581L-90.8793 192.672L-94.8898 187.525L-105.844 189.495L-120.509 189.496L-124.126 192.506L-116.072 197.309L-118.126 200.571L-120.702 210.764L-117.973 224.119L-119.104 228.236L-118.491 232.748L-124.166 234.36L-124.47 238.432L-130.2 240.686L-130.565 245.572L-132.783 255.667L-137.144 254.235L-140.868 256.55L-149.835 258.044L-164.049 262.211L-171.947 269.07L-182.597 267.927L-191.924 264.403L-199.379 272.652L-204.707 276.71L-209.145 275.061L-214.374 275.52L-216.604 267.944L-222.283 270.086L-229.034 267.592L-229.374 270.033L-238.443 272.98L-244.032 272.047L-248.035 275.49L-249.184 283.346L-254.071 284.276L-255.936 288.474L-254.073 294.744L-257 296.255L-255.669 305.411L-250.52 302.824L-240.31 309.342L-242.801 315.735L-241.999 320.285L-242.807 330.886L-242.717 336.066L-254.169 336.186L-254.341 339.436L-248.378 343.398L-241.286 345.128L-239.524 350.579L-234.371 352.63L-232.956 361.361L-234.837 366.952L-231.891 373.539L-227.337 374.463L-220.983 381.716L-206.656 388.439L-203.27 388.325L-204.329 392.997L-202.914 400.796L-201.722 409.197L-191.783 416.558L-191.357 419.948L-197.136 421.993L-197.713 436.67L-191.98 443.587L-190.021 446.386L-191.268 449.119L-189.515 453.382L-193.441 457.864L-202.684 459.674L-204.313 454.448L-209.444 453.485L-210.406 459.604L-207.432 467.451L-208.749 471.173L-208.44 475.205L-209.649 479.064L-209.723 481.608L-203.843 481.411L-201.492 489.03L-197.765 493.41L-191.327 495.102L-184.976 500.476L-185.986 503.329L-178.915 509.934L-173.797 515.625L-171.642 520.089L-161.192 513.044L-159.991 516.767L-155.36 520.016L-146.093 526.522L-141.974 532.389L-134.425 538.349L-132.602 546.488L-127.733 551.061L-123.57 545.705L-119.92 547.799L-120.993 556.987L-108.491 565.025L-102.987 564.493L-103.523 567.738L-102.491 572.428L-96.845 573.636L-90.2542 577.997L-88.5053 583.126L-85.5928 580.109L-82.4591 583.599L-79.7612 584.836L-75.0262 581.892L-64.8087 590.346L-59.0654 589.422L-55.9707 591.655L-37.1392 587.44L-32.6643 589.918L-32.5426 593.513L-35.4014 599.785L-34.3197 603.404L-32.5077 603.192L-26.5438 596.848L-19.4135 590.855L-9.27046 586.196L-3.43098 588.189L2.76427 594.371L14.3503 595.883L22.1524 601.353L26.3141 602.975L30.685 601.816L33.6563 600.664L34.5423 602.243L41.5362 599.998L43.1373 597.721L42.1886 595.981L44.4077 593.931L48.1513 593.451L52.0932 590.462L53.7089 585.751L56.8582 584.916L63.1551 584.701L70.2055 581.82L70.2039 578.841L73.1849 578.497L75.3883 576.222L78.8025 575L81.9785 572.609L84.8187 575.512L94.6217 579.628L98.6621 579.11L100.363 575.584L109.67 571.761L113.226 576.051L115.777 576.095L114.943 578.198L110.339 580.088L110.882 583.969L116.513 580.611L117.901 583.731L119.415 587.878L115.178 590.811L113.346 594.167L119.847 594.165L122.98 596.195L129.221 596.74L133.003 599.913L136.616 595.766L140.295 594.49L142.963 597.725L146.932 599.464L149.026 606.698L153.318 616.194L155.344 613.686L159.896 616.527L159.086 624.272L159.916 627.687L159.449 643.082L156.431 649.389L157.475 654.334L154.245 655.737L150.852 660.441L147.743 660.57L146.12 665.202L139.877 667.676L138.133 673.486L138.752 675.881L135.464 676.988L133.942 679.549L134.589 684.572L136.255 686.413L137.024 690.712L134.335 695.139L134.942 697.655L140.224 695.826L143.174 692.801L152.477 692.172L154.886 693.682L160.051 693.144L156.44 698.241L159.092 702.231L160.791 713.174L164.391 716.331L172.361 716.409L173.197 719.283L169.469 724.874L170.235 729.196L167.1 733.342L166.116 737.507L169.725 739.073L171.736 738.692L182.188 741.152L181.537 746.291L184.483 749.39L187.413 755.272L189.979 752.675L194.701 754.653L199.675 750.551L205.052 748.664L209.736 760.695L214.519 759.796L219.084 760.909L220.028 750.502L215.318 737.791L218.4 731.967L221.036 733.151L228.057 732.802L231.925 729.905L234.91 725.5L241.503 728.773L243.847 731.735L245.898 731.89L252.826 724.489L256.16 729.213L258.769 724.608L265.118 730.916L266.877 726.71L270.078 723.55L272.781 726.046L276.139 724.43L283.233 721.697L283.469 717.453L293.093 710.958L298.287 715.955L305.811 720.013L310.625 718.43L313.859 721.537L317.834 719.865L323.595 722.021L323.741 725.106L320.046 728.03L319.721 731.425L321.355 733.015L323.165 740.096L329.242 741.618L332.448 745.389L339.938 748.44L346.703 746.545L350.356 748.938L353.708 747.624Z" stroke="#47645F"/>
<circle cx="488.5" cy="671.5" r="27.5" fill="#1A5A38"/>
<path d="M344.072 670V650.12H357.428V653.508H347.936V658.632H355.832V661.768H347.936V670H344.072ZM368.55 666.724C369.465 666.724 370.23 666.537 370.846 666.164C371.481 665.791 371.985 665.305 372.358 664.708C372.75 664.111 373.021 663.429 373.17 662.664C373.338 661.88 373.422 661.077 373.422 660.256V650.12H377.258V660.256C377.258 661.619 377.09 662.897 376.754 664.092C376.437 665.287 375.923 666.332 375.214 667.228C374.523 668.124 373.627 668.833 372.526 669.356C371.425 669.879 370.109 670.14 368.578 670.14C366.991 670.14 365.638 669.869 364.518 669.328C363.417 668.768 362.521 668.04 361.83 667.144C361.139 666.229 360.635 665.175 360.318 663.98C360.019 662.785 359.87 661.544 359.87 660.256V650.12H363.734V660.256C363.734 661.096 363.809 661.908 363.958 662.692C364.126 663.457 364.397 664.139 364.77 664.736C365.162 665.333 365.666 665.819 366.282 666.192C366.898 666.547 367.654 666.724 368.55 666.724ZM381.15 670V650.12H388.374C389.998 650.12 391.417 650.381 392.63 650.904C393.862 651.427 394.889 652.136 395.71 653.032C396.531 653.928 397.147 654.983 397.558 656.196C397.969 657.391 398.174 658.669 398.174 660.032C398.174 661.544 397.941 662.916 397.474 664.148C397.026 665.361 396.373 666.407 395.514 667.284C394.655 668.143 393.619 668.815 392.406 669.3C391.211 669.767 389.867 670 388.374 670H381.15ZM394.282 660.032C394.282 659.08 394.151 658.203 393.89 657.4C393.629 656.597 393.246 655.907 392.742 655.328C392.238 654.749 391.613 654.301 390.866 653.984C390.138 653.667 389.307 653.508 388.374 653.508H385.014V666.612H388.374C389.326 666.612 390.166 666.444 390.894 666.108C391.641 665.772 392.257 665.315 392.742 664.736C393.246 664.139 393.629 663.439 393.89 662.636C394.151 661.833 394.282 660.965 394.282 660.032ZM401.193 670V650.12H405.057V670H401.193ZM413.069 657.26V670H409.205V650.12H412.201L422.561 663.168V650.148H426.425V670H423.289L413.069 657.26ZM444.364 667.76C442.778 669.347 440.93 670.14 438.82 670.14C437.514 670.14 436.282 669.879 435.124 669.356C433.986 668.833 432.987 668.115 432.128 667.2C431.288 666.285 430.616 665.212 430.112 663.98C429.627 662.729 429.384 661.385 429.384 659.948C429.384 658.585 429.627 657.307 430.112 656.112C430.616 654.899 431.298 653.844 432.156 652.948C433.034 652.033 434.06 651.315 435.236 650.792C436.412 650.251 437.691 649.98 439.072 649.98C440.939 649.98 442.535 650.372 443.86 651.156C445.204 651.94 446.212 652.995 446.884 654.32L444 656.448C443.496 655.459 442.787 654.703 441.872 654.18C440.976 653.657 439.996 653.396 438.932 653.396C438.092 653.396 437.318 653.573 436.608 653.928C435.918 654.283 435.32 654.768 434.816 655.384C434.331 656 433.948 656.709 433.668 657.512C433.407 658.315 433.276 659.164 433.276 660.06C433.276 660.993 433.426 661.871 433.724 662.692C434.023 663.495 434.434 664.195 434.956 664.792C435.479 665.389 436.095 665.865 436.804 666.22C437.532 666.556 438.316 666.724 439.156 666.724C441.079 666.724 442.815 665.819 444.364 664.008V662.608H440.36V659.78H447.556V670H444.364V667.76Z" fill="#1A5A38"/>
<circle cx="579" cy="570" r="30" fill="#1A5A38"/>
<path d="M393.788 546.12V566H389.952V557.516H380.936V566H377.072V546.12H380.936V554.156H389.952V546.12H393.788ZM403.591 546.12H407.007L414.567 566H410.591L408.743 561.044H401.799L399.979 566H396.003L403.591 546.12ZM408.043 558.328L405.299 550.516L402.443 558.328H408.043ZM420.612 553.26V566H416.748V546.12H419.744L430.104 559.168V546.148H433.968V566H430.832L420.612 553.26ZM451.907 563.76C450.321 565.347 448.473 566.14 446.363 566.14C445.057 566.14 443.825 565.879 442.667 565.356C441.529 564.833 440.53 564.115 439.671 563.2C438.831 562.285 438.159 561.212 437.655 559.98C437.17 558.729 436.927 557.385 436.927 555.948C436.927 554.585 437.17 553.307 437.655 552.112C438.159 550.899 438.841 549.844 439.699 548.948C440.577 548.033 441.603 547.315 442.779 546.792C443.955 546.251 445.234 545.98 446.615 545.98C448.482 545.98 450.078 546.372 451.403 547.156C452.747 547.94 453.755 548.995 454.427 550.32L451.543 552.448C451.039 551.459 450.33 550.703 449.415 550.18C448.519 549.657 447.539 549.396 446.475 549.396C445.635 549.396 444.861 549.573 444.151 549.928C443.461 550.283 442.863 550.768 442.359 551.384C441.874 552 441.491 552.709 441.211 553.512C440.95 554.315 440.819 555.164 440.819 556.06C440.819 556.993 440.969 557.871 441.267 558.692C441.566 559.495 441.977 560.195 442.499 560.792C443.022 561.389 443.638 561.865 444.347 562.22C445.075 562.556 445.859 562.724 446.699 562.724C448.622 562.724 450.358 561.819 451.907 560.008V558.608H447.903V555.78H455.099V566H451.907V563.76ZM457.16 563.088L468.388 549.508H457.468V546.12H472.84V549.032L461.976 562.612H472.924V566H457.16V563.088ZM492.663 546.12V566H488.827V557.516H479.811V566H475.947V546.12H479.811V554.156H488.827V546.12H492.663ZM505.294 566.14C503.838 566.14 502.513 565.86 501.318 565.3C500.142 564.721 499.125 563.965 498.266 563.032C497.426 562.08 496.773 560.997 496.306 559.784C495.84 558.571 495.606 557.329 495.606 556.06C495.606 554.735 495.849 553.465 496.334 552.252C496.838 551.039 497.52 549.965 498.378 549.032C499.256 548.099 500.292 547.361 501.486 546.82C502.681 546.26 503.978 545.98 505.378 545.98C506.816 545.98 508.122 546.279 509.298 546.876C510.493 547.455 511.51 548.22 512.35 549.172C513.19 550.124 513.844 551.207 514.31 552.42C514.777 553.633 515.01 554.865 515.01 556.116C515.01 557.441 514.768 558.711 514.282 559.924C513.797 561.119 513.125 562.183 512.266 563.116C511.408 564.031 510.381 564.768 509.186 565.328C507.992 565.869 506.694 566.14 505.294 566.14ZM499.526 556.06C499.526 556.919 499.657 557.749 499.918 558.552C500.18 559.355 500.553 560.064 501.038 560.68C501.542 561.296 502.149 561.791 502.858 562.164C503.586 562.537 504.408 562.724 505.322 562.724C506.256 562.724 507.077 562.537 507.786 562.164C508.514 561.772 509.121 561.259 509.606 560.624C510.11 559.989 510.484 559.28 510.726 558.496C510.988 557.693 511.118 556.881 511.118 556.06C511.118 555.201 510.978 554.371 510.698 553.568C510.437 552.765 510.054 552.056 509.55 551.44C509.065 550.824 508.458 550.339 507.73 549.984C507.021 549.611 506.218 549.424 505.322 549.424C504.389 549.424 503.558 549.62 502.83 550.012C502.102 550.385 501.496 550.889 501.01 551.524C500.525 552.14 500.152 552.849 499.89 553.652C499.648 554.436 499.526 555.239 499.526 556.06ZM526.374 562.724C527.289 562.724 528.054 562.537 528.67 562.164C529.305 561.791 529.809 561.305 530.182 560.708C530.574 560.111 530.845 559.429 530.994 558.664C531.162 557.88 531.246 557.077 531.246 556.256V546.12H535.082V556.256C535.082 557.619 534.914 558.897 534.578 560.092C534.261 561.287 533.748 562.332 533.038 563.228C532.348 564.124 531.452 564.833 530.35 565.356C529.249 565.879 527.933 566.14 526.402 566.14C524.816 566.14 523.462 565.869 522.342 565.328C521.241 564.768 520.345 564.04 519.654 563.144C518.964 562.229 518.46 561.175 518.142 559.98C517.844 558.785 517.694 557.544 517.694 556.256V546.12H521.558V556.256C521.558 557.096 521.633 557.908 521.782 558.692C521.95 559.457 522.221 560.139 522.594 560.736C522.986 561.333 523.49 561.819 524.106 562.192C524.722 562.547 525.478 562.724 526.374 562.724Z" fill="#1A5A38"/>
<circle cx="203" cy="708" r="29" fill="#1A5A38"/>
<path d="M43.312 685.12L48.212 694.696L53.196 685.12H57.368L50.144 698.056V705H46.308V698L39.112 685.12H43.312ZM67.9564 701.724C68.871 701.724 69.6364 701.537 70.2524 701.164C70.887 700.791 71.391 700.305 71.7644 699.708C72.1564 699.111 72.427 698.429 72.5764 697.664C72.7444 696.88 72.8284 696.077 72.8284 695.256V685.12H76.6644V695.256C76.6644 696.619 76.4964 697.897 76.1604 699.092C75.843 700.287 75.3297 701.332 74.6204 702.228C73.9297 703.124 73.0337 703.833 71.9324 704.356C70.831 704.879 69.515 705.14 67.9844 705.14C66.3977 705.14 65.0444 704.869 63.9244 704.328C62.823 703.768 61.927 703.04 61.2364 702.144C60.5457 701.229 60.0417 700.175 59.7244 698.98C59.4257 697.785 59.2764 696.544 59.2764 695.256V685.12H63.1404V695.256C63.1404 696.096 63.215 696.908 63.3644 697.692C63.5324 698.457 63.803 699.139 64.1764 699.736C64.5684 700.333 65.0724 700.819 65.6884 701.192C66.3044 701.547 67.0604 701.724 67.9564 701.724ZM84.4204 692.26V705H80.5564V685.12H83.5524L93.9124 698.168V685.148H97.7764V705H94.6404L84.4204 692.26ZM105.776 692.26V705H101.912V685.12H104.908L115.268 698.168V685.148H119.132V705H115.996L105.776 692.26ZM128.923 685.12H132.339L139.899 705H135.923L134.075 700.044H127.131L125.311 705H121.335L128.923 685.12ZM133.375 697.328L130.631 689.516L127.775 697.328H133.375ZM145.944 692.26V705H142.08V685.12H145.076L155.436 698.168V685.148H159.3V705H156.164L145.944 692.26Z" fill="#1A5A38"/>
</svg>
