<svg width="1536" height="484" viewBox="0 0 1536 484" fill="none" xmlns="http://www.w3.org/2000/svg">
<path fill-rule="evenodd" clip-rule="evenodd" d="M483.58 242C483.58 375.653 375.327 484 241.79 484C115.717 484 12.1797 387.426 1 264.158V219.842C12.1797 96.5743 115.717 0 241.79 0C375.327 0 483.58 108.347 483.58 242ZM768 0H241.79H1V219.842C0.338162 227.139 0 234.53 0 242C0 249.47 0.338162 256.861 1 264.158V484H241.79H768H1294.21H1536V242V0H1294.21H768ZM1294.21 0C1427.75 0 1536 108.347 1536 242C1536 375.653 1427.75 484 1294.21 484C1160.67 484 1052.42 375.653 1052.42 242C1052.42 108.347 1160.67 0 1294.21 0ZM768 0C634.463 0 526.21 108.347 526.21 242C526.21 375.653 634.463 484 768 484C901.537 484 1009.79 375.653 1009.79 242C1009.79 108.347 901.537 0 768 0Z" fill="#CED7CC"/>
</svg>
