<svg width="1536" height="484" viewBox="0 0 1536 484" fill="none" xmlns="http://www.w3.org/2000/svg">
<path fill-rule="evenodd" clip-rule="evenodd" d="M241.79 0H0V242V484H241.79H768H1294.21H1536V242V0H1294.21H768H241.79ZM241.79 0C375.327 0 483.58 108.347 483.58 242C483.58 375.653 375.327 484 241.79 484C108.253 484 0 375.653 0 242C0 108.347 108.253 0 241.79 0ZM768 0C901.537 0 1009.79 108.347 1009.79 242C1009.79 375.653 901.537 484 768 484C634.463 484 526.21 375.653 526.21 242C526.21 108.347 634.463 0 768 0ZM1294.21 0C1427.75 0 1536 108.347 1536 242C1536 375.653 1427.75 484 1294.21 484C1160.67 484 1052.42 375.653 1052.42 242C1052.42 108.347 1160.67 0 1294.21 0Z" fill="#CED7CC"/>
</svg>
