<svg width="754" height="246" viewBox="0 0 754 246" fill="none" xmlns="http://www.w3.org/2000/svg">
<path d="M31.4725 170.001V166.789L47.5299 161.972V71.5691H19.2689L10.1162 95.1735H7.22583V64.0221H100.359V95.1735H97.4685L88.3157 71.5691H60.0547V161.972L76.1121 166.789V170.001H31.4725ZM118.009 170.001V166.789L130.695 161.972V72.0508L118.009 67.2336V64.0221H193.8V90.9985H191.071L182.4 71.5691H143.22V111.552H171.32L177.743 98.2244H180.473V132.105H177.743L171.32 119.099H143.22V162.454H186.896L195.567 141.419H198.296V170.001H118.009ZM214.798 170.001V166.789L224.432 162.775L265.379 63.2192H270.999L311.785 162.615L321.901 166.789V170.001H284.487V166.789L298.296 162.615L285.772 131.303H246.11L233.746 162.775L247.555 166.789V170.001H214.798ZM249.161 123.756H282.721L265.86 81.6852L249.161 123.756Z" fill="white"/>
<path d="M428.634 68.3379V88.3606M428.634 68.3379H389.494M428.634 68.3379H467.775M428.634 88.3606L389.494 68.3379M428.634 88.3606V125.794M428.634 88.3606L467.775 68.3379M389.494 68.3379H360.676C363.041 69.6437 366.482 73.7788 368.633 81.6138L372.141 97.0661M428.634 125.794L372.141 97.0661M428.634 125.794V154.523M428.634 125.794L485.128 97.0661M372.141 97.0661C374.076 107.223 378.47 127.697 378.806 129.059M428.634 154.523L378.806 129.059M428.634 154.523V170.845M428.634 154.523L478.463 129.059M378.806 129.059C379.236 130.8 383.687 146.905 396.161 153.87C397.523 154.45 400.505 156.438 401.537 159.746C401.967 161.922 402.077 165.43 402.827 166.493C403.903 168.016 404.548 169.104 411 169.975C415.775 170.619 425.767 170.845 428.634 170.845M428.634 170.845C431.502 170.845 441.494 170.619 446.269 169.975C452.721 169.104 453.366 168.016 454.442 166.493C455.192 165.43 455.302 161.922 455.732 159.746C456.764 156.438 459.746 154.45 461.108 153.87C473.582 146.905 478.033 130.8 478.463 129.059M467.775 68.3379H496.593C494.228 69.6437 490.787 73.7788 488.636 81.6138L485.128 97.0661M485.128 97.0661C483.193 107.223 478.799 127.697 478.463 129.059" stroke="white" stroke-width="5.62196"/>
<path d="M559.957 170V166.789L576.014 161.971V71.5681H547.753L538.601 95.1725H535.71V64.0211H628.843V95.1725H625.953L616.8 71.5681H588.539V161.971L604.596 166.789V170H559.957ZM641.677 170V166.789L653.398 162.132L687.601 117.011L654.522 71.5681L644.085 67.2326V64.0211H682.302V67.2326L669.616 71.7287V72.5315L696.111 108.5L723.248 72.371V71.7287L711.205 67.2326V64.0211H743.32V67.2326L733.525 71.4075L700.607 114.602L735.452 161.811L747.334 166.789V170H708.315V166.789L720.197 162.453V161.811L691.936 122.952L663.354 161.65V162.292L676.2 166.789V170H641.677Z" fill="white"/>
</svg>
