<svg width="183" height="143" viewBox="0 0 183 143" fill="none" xmlns="http://www.w3.org/2000/svg">
<path d="M91.5 4V30.3694M91.5 4H39.9525M91.5 4H143.047M91.5 30.3694L39.9525 4M91.5 30.3694V79.6688M91.5 30.3694L143.047 4M39.9525 4H2C5.11551 5.71975 9.64715 11.1656 12.4794 21.4841L17.0991 41.8344M91.5 79.6688L17.0991 41.8344M91.5 79.6688V117.503M91.5 79.6688L165.901 41.8344M17.0991 41.8344C19.6482 55.2102 25.4343 82.1747 25.8774 83.9682M91.5 117.503L25.8774 83.9682M91.5 117.503V139M91.5 117.503L157.123 83.9682M25.8774 83.9682C26.4439 86.2611 32.3054 107.471 48.7326 116.643C50.5264 117.408 54.4538 120.025 55.8133 124.382C56.3797 127.248 56.5249 131.868 57.5127 133.268C58.9288 135.274 59.7785 136.707 68.2753 137.854C74.564 138.702 87.7236 139 91.5 139M91.5 139C95.2764 139 108.436 138.702 114.725 137.854C123.222 136.707 124.071 135.274 125.487 133.268C126.475 131.868 126.62 127.248 127.187 124.382C128.546 120.025 132.474 117.408 134.267 116.643C150.695 107.471 156.556 86.2611 157.123 83.9682M143.047 4H181C177.884 5.71975 173.353 11.1656 170.521 21.4841L165.901 41.8344M165.901 41.8344C163.352 55.2102 157.566 82.1747 157.123 83.9682" stroke="white" stroke-width="7.40398"/>
</svg>
